<mxfile host="app.diagrams.net" modified="2024-06-02T17:46:58.517Z" agent="Mozilla/5.0 (Windows NT 10.0; Win64; x64) AppleWebKit/537.36 (KHTML, like Gecko) Chrome/125.0.0.0 Safari/537.36" etag="hKv7JYZXp2NJRq8NpxA8" version="24.4.13" type="github">
  <diagram name="Strona-1" id="cDgd7myVllQRQyGmaZzA">
    <mxGraphModel dx="2261" dy="746" grid="1" gridSize="10" guides="1" tooltips="1" connect="1" arrows="1" fold="1" page="1" pageScale="1" pageWidth="827" pageHeight="1169" math="0" shadow="0">
      <root>
        <mxCell id="0" />
        <mxCell id="1" parent="0" />
        <mxCell id="hWHZnMVluy6LuO4f5s4H-1" value="DefaultRhymerFactory" style="html=1;whiteSpace=wrap;" parent="1" vertex="1">
          <mxGeometry x="260" y="390" width="130" height="50" as="geometry" />
        </mxCell>
        <mxCell id="hWHZnMVluy6LuO4f5s4H-2" value="Rhymersfactory" style="html=1;whiteSpace=wrap;" parent="1" vertex="1">
          <mxGeometry x="260" y="170" width="130" height="50" as="geometry" />
        </mxCell>
        <mxCell id="hWHZnMVluy6LuO4f5s4H-3" value="" style="endArrow=block;endSize=16;endFill=0;html=1;rounded=0;entryX=0.5;entryY=1;entryDx=0;entryDy=0;" parent="1" source="hWHZnMVluy6LuO4f5s4H-1" target="hWHZnMVluy6LuO4f5s4H-2" edge="1">
          <mxGeometry width="160" relative="1" as="geometry">
            <mxPoint x="160" y="240" as="sourcePoint" />
            <mxPoint x="216" y="160" as="targetPoint" />
          </mxGeometry>
        </mxCell>
        <mxCell id="hWHZnMVluy6LuO4f5s4H-4" value="DefaultCountingOutRhymer" style="html=1;whiteSpace=wrap;" parent="1" vertex="1">
          <mxGeometry x="-60" y="170" width="170" height="50" as="geometry" />
        </mxCell>
        <mxCell id="hWHZnMVluy6LuO4f5s4H-6" value="HanoiRhymer" style="html=1;whiteSpace=wrap;" parent="1" vertex="1">
          <mxGeometry x="-60" y="390" width="130" height="50" as="geometry" />
        </mxCell>
        <mxCell id="hWHZnMVluy6LuO4f5s4H-7" value="FIFORhymer" style="html=1;whiteSpace=wrap;" parent="1" vertex="1">
          <mxGeometry x="154" y="240" width="130" height="50" as="geometry" />
        </mxCell>
        <mxCell id="hWHZnMVluy6LuO4f5s4H-8" value="" style="endArrow=diamondThin;endFill=0;endSize=24;html=1;rounded=0;" parent="1" source="hWHZnMVluy6LuO4f5s4H-4" target="hWHZnMVluy6LuO4f5s4H-2" edge="1">
          <mxGeometry width="160" relative="1" as="geometry">
            <mxPoint y="680" as="sourcePoint" />
            <mxPoint x="209" y="340" as="targetPoint" />
          </mxGeometry>
        </mxCell>
        <mxCell id="hWHZnMVluy6LuO4f5s4H-12" value="" style="endArrow=diamondThin;endFill=0;endSize=24;html=1;rounded=0;" parent="1" source="hWHZnMVluy6LuO4f5s4H-7" target="hWHZnMVluy6LuO4f5s4H-1" edge="1">
          <mxGeometry width="160" relative="1" as="geometry">
            <mxPoint x="216" y="460" as="sourcePoint" />
            <mxPoint x="304" y="390" as="targetPoint" />
          </mxGeometry>
        </mxCell>
        <mxCell id="4GwAoDzWt5xk7uMhApx6-22" value="1" style="edgeLabel;html=1;align=center;verticalAlign=middle;resizable=0;points=[];" vertex="1" connectable="0" parent="hWHZnMVluy6LuO4f5s4H-12">
          <mxGeometry x="0.6867" y="3" relative="1" as="geometry">
            <mxPoint x="10" y="-8" as="offset" />
          </mxGeometry>
        </mxCell>
        <mxCell id="4GwAoDzWt5xk7uMhApx6-23" value="1" style="edgeLabel;html=1;align=center;verticalAlign=middle;resizable=0;points=[];" vertex="1" connectable="0" parent="hWHZnMVluy6LuO4f5s4H-12">
          <mxGeometry x="0.249" y="3" relative="1" as="geometry">
            <mxPoint x="-23" y="-50" as="offset" />
          </mxGeometry>
        </mxCell>
        <mxCell id="hWHZnMVluy6LuO4f5s4H-13" value="" style="endArrow=diamondThin;endFill=0;endSize=24;html=1;rounded=0;" parent="1" source="hWHZnMVluy6LuO4f5s4H-6" target="hWHZnMVluy6LuO4f5s4H-1" edge="1">
          <mxGeometry width="160" relative="1" as="geometry">
            <mxPoint x="226" y="470" as="sourcePoint" />
            <mxPoint x="314" y="400" as="targetPoint" />
          </mxGeometry>
        </mxCell>
        <mxCell id="4GwAoDzWt5xk7uMhApx6-24" value="1" style="edgeLabel;html=1;align=center;verticalAlign=middle;resizable=0;points=[];" vertex="1" connectable="0" parent="hWHZnMVluy6LuO4f5s4H-13">
          <mxGeometry x="-0.0842" y="3" relative="1" as="geometry">
            <mxPoint x="73" y="-22" as="offset" />
          </mxGeometry>
        </mxCell>
        <mxCell id="4GwAoDzWt5xk7uMhApx6-25" value="1" style="edgeLabel;html=1;align=center;verticalAlign=middle;resizable=0;points=[];" vertex="1" connectable="0" parent="hWHZnMVluy6LuO4f5s4H-13">
          <mxGeometry x="-0.3684" y="1" relative="1" as="geometry">
            <mxPoint x="-50" y="-14" as="offset" />
          </mxGeometry>
        </mxCell>
        <mxCell id="hWHZnMVluy6LuO4f5s4H-14" value="IntLinkedList" style="html=1;whiteSpace=wrap;" parent="1" vertex="1">
          <mxGeometry x="284" y="490" width="130" height="50" as="geometry" />
        </mxCell>
        <mxCell id="hWHZnMVluy6LuO4f5s4H-15" value="IntLinkedListTest" style="html=1;whiteSpace=wrap;" parent="1" vertex="1">
          <mxGeometry x="24" y="490" width="130" height="50" as="geometry" />
        </mxCell>
        <mxCell id="hWHZnMVluy6LuO4f5s4H-16" value="" style="endArrow=block;endSize=16;endFill=0;html=1;rounded=0;entryX=1;entryY=1;entryDx=0;entryDy=0;exitX=0;exitY=0.5;exitDx=0;exitDy=0;" parent="1" source="hWHZnMVluy6LuO4f5s4H-7" target="hWHZnMVluy6LuO4f5s4H-4" edge="1">
          <mxGeometry width="160" relative="1" as="geometry">
            <mxPoint x="180" y="510" as="sourcePoint" />
            <mxPoint x="180" y="400" as="targetPoint" />
          </mxGeometry>
        </mxCell>
        <mxCell id="hWHZnMVluy6LuO4f5s4H-17" value="" style="endArrow=block;endSize=16;endFill=0;html=1;rounded=0;entryX=0.341;entryY=0.98;entryDx=0;entryDy=0;entryPerimeter=0;exitX=0.454;exitY=-0.04;exitDx=0;exitDy=0;exitPerimeter=0;" parent="1" source="hWHZnMVluy6LuO4f5s4H-6" target="hWHZnMVluy6LuO4f5s4H-4" edge="1">
          <mxGeometry width="160" relative="1" as="geometry">
            <mxPoint x="68" y="330" as="sourcePoint" />
            <mxPoint x="2" y="270" as="targetPoint" />
          </mxGeometry>
        </mxCell>
        <mxCell id="hWHZnMVluy6LuO4f5s4H-18" value="RhymersDemo" style="html=1;whiteSpace=wrap;" parent="1" vertex="1">
          <mxGeometry x="540" y="280" width="130" height="50" as="geometry" />
        </mxCell>
        <mxCell id="hWHZnMVluy6LuO4f5s4H-19" value="RhymersJUnitTest" style="html=1;whiteSpace=wrap;" parent="1" vertex="1">
          <mxGeometry x="-320" y="170" width="130" height="50" as="geometry" />
        </mxCell>
        <mxCell id="4GwAoDzWt5xk7uMhApx6-1" value="" style="endArrow=none;html=1;edgeStyle=orthogonalEdgeStyle;rounded=0;" edge="1" parent="1" source="hWHZnMVluy6LuO4f5s4H-14" target="hWHZnMVluy6LuO4f5s4H-15">
          <mxGeometry relative="1" as="geometry">
            <mxPoint x="4" y="400" as="sourcePoint" />
            <mxPoint x="184" y="400" as="targetPoint" />
          </mxGeometry>
        </mxCell>
        <mxCell id="4GwAoDzWt5xk7uMhApx6-2" value="testuje&amp;nbsp; ▶" style="edgeLabel;html=1;align=center;verticalAlign=middle;resizable=0;points=[];" vertex="1" connectable="0" parent="4GwAoDzWt5xk7uMhApx6-1">
          <mxGeometry x="-0.3201" y="-1" relative="1" as="geometry">
            <mxPoint x="-370" y="-334" as="offset" />
          </mxGeometry>
        </mxCell>
        <mxCell id="4GwAoDzWt5xk7uMhApx6-16" value="5" style="edgeLabel;html=1;align=center;verticalAlign=middle;resizable=0;points=[];" vertex="1" connectable="0" parent="4GwAoDzWt5xk7uMhApx6-1">
          <mxGeometry x="-0.1385" y="3" relative="1" as="geometry">
            <mxPoint x="42" y="-18" as="offset" />
          </mxGeometry>
        </mxCell>
        <mxCell id="4GwAoDzWt5xk7uMhApx6-17" value="1" style="edgeLabel;html=1;align=center;verticalAlign=middle;resizable=0;points=[];" vertex="1" connectable="0" parent="4GwAoDzWt5xk7uMhApx6-1">
          <mxGeometry x="0.1846" relative="1" as="geometry">
            <mxPoint x="-37" y="-15" as="offset" />
          </mxGeometry>
        </mxCell>
        <mxCell id="4GwAoDzWt5xk7uMhApx6-7" value="" style="endArrow=none;endFill=0;endSize=12;html=1;rounded=0;exitX=1;exitY=0.5;exitDx=0;exitDy=0;entryX=0;entryY=0.5;entryDx=0;entryDy=0;" edge="1" parent="1" source="hWHZnMVluy6LuO4f5s4H-1" target="hWHZnMVluy6LuO4f5s4H-18">
          <mxGeometry width="160" relative="1" as="geometry">
            <mxPoint x="390" y="480" as="sourcePoint" />
            <mxPoint x="550" y="480" as="targetPoint" />
          </mxGeometry>
        </mxCell>
        <mxCell id="4GwAoDzWt5xk7uMhApx6-14" value="◀ testuje" style="edgeLabel;html=1;align=center;verticalAlign=middle;resizable=0;points=[];rotation=-35;" vertex="1" connectable="0" parent="4GwAoDzWt5xk7uMhApx6-7">
          <mxGeometry x="0.1993" y="-2" relative="1" as="geometry">
            <mxPoint x="-31" as="offset" />
          </mxGeometry>
        </mxCell>
        <mxCell id="4GwAoDzWt5xk7uMhApx6-18" value="1" style="edgeLabel;html=1;align=center;verticalAlign=middle;resizable=0;points=[];" vertex="1" connectable="0" parent="4GwAoDzWt5xk7uMhApx6-7">
          <mxGeometry x="-0.5098" y="1" relative="1" as="geometry">
            <mxPoint x="-26" y="3" as="offset" />
          </mxGeometry>
        </mxCell>
        <mxCell id="4GwAoDzWt5xk7uMhApx6-19" value="1" style="edgeLabel;html=1;align=center;verticalAlign=middle;resizable=0;points=[];" vertex="1" connectable="0" parent="4GwAoDzWt5xk7uMhApx6-7">
          <mxGeometry x="0.6688" relative="1" as="geometry">
            <mxPoint x="-5" y="-13" as="offset" />
          </mxGeometry>
        </mxCell>
        <mxCell id="4GwAoDzWt5xk7uMhApx6-10" value="" style="endArrow=none;endFill=0;endSize=12;html=1;rounded=0;entryX=0;entryY=0.5;entryDx=0;entryDy=0;exitX=1;exitY=0.5;exitDx=0;exitDy=0;" edge="1" parent="1" source="hWHZnMVluy6LuO4f5s4H-2" target="hWHZnMVluy6LuO4f5s4H-18">
          <mxGeometry width="160" relative="1" as="geometry">
            <mxPoint x="400" y="365" as="sourcePoint" />
            <mxPoint x="555" y="300" as="targetPoint" />
          </mxGeometry>
        </mxCell>
        <mxCell id="4GwAoDzWt5xk7uMhApx6-20" value="1" style="edgeLabel;html=1;align=center;verticalAlign=middle;resizable=0;points=[];" vertex="1" connectable="0" parent="4GwAoDzWt5xk7uMhApx6-10">
          <mxGeometry x="0.596" y="2" relative="1" as="geometry">
            <mxPoint x="9" y="-11" as="offset" />
          </mxGeometry>
        </mxCell>
        <mxCell id="4GwAoDzWt5xk7uMhApx6-21" value="1" style="edgeLabel;html=1;align=center;verticalAlign=middle;resizable=0;points=[];" vertex="1" connectable="0" parent="4GwAoDzWt5xk7uMhApx6-10">
          <mxGeometry x="-0.7121" y="-3" relative="1" as="geometry">
            <mxPoint y="-23" as="offset" />
          </mxGeometry>
        </mxCell>
        <mxCell id="4GwAoDzWt5xk7uMhApx6-11" value="" style="endArrow=none;endFill=0;endSize=12;html=1;rounded=0;exitX=1;exitY=0.5;exitDx=0;exitDy=0;entryX=0;entryY=0.5;entryDx=0;entryDy=0;" edge="1" parent="1" source="hWHZnMVluy6LuO4f5s4H-19" target="hWHZnMVluy6LuO4f5s4H-4">
          <mxGeometry width="160" relative="1" as="geometry">
            <mxPoint x="-280" y="307.5" as="sourcePoint" />
            <mxPoint x="-125" y="242.5" as="targetPoint" />
          </mxGeometry>
        </mxCell>
        <mxCell id="4GwAoDzWt5xk7uMhApx6-26" value="5" style="edgeLabel;html=1;align=center;verticalAlign=middle;resizable=0;points=[];" vertex="1" connectable="0" parent="4GwAoDzWt5xk7uMhApx6-11">
          <mxGeometry x="0.2923" y="-2" relative="1" as="geometry">
            <mxPoint x="26" y="-17" as="offset" />
          </mxGeometry>
        </mxCell>
        <mxCell id="4GwAoDzWt5xk7uMhApx6-27" value="1" style="edgeLabel;html=1;align=center;verticalAlign=middle;resizable=0;points=[];" vertex="1" connectable="0" parent="4GwAoDzWt5xk7uMhApx6-11">
          <mxGeometry x="-0.6615" relative="1" as="geometry">
            <mxPoint x="-12" y="-15" as="offset" />
          </mxGeometry>
        </mxCell>
        <mxCell id="4GwAoDzWt5xk7uMhApx6-13" value="testuje&amp;nbsp; ▶" style="edgeLabel;html=1;align=center;verticalAlign=middle;resizable=0;points=[];" vertex="1" connectable="0" parent="1">
          <mxGeometry x="234" y="520" as="geometry">
            <mxPoint x="-8" y="-21" as="offset" />
          </mxGeometry>
        </mxCell>
        <mxCell id="4GwAoDzWt5xk7uMhApx6-15" value="◀ testuje" style="edgeLabel;html=1;align=center;verticalAlign=middle;resizable=0;points=[];rotation=35;" vertex="1" connectable="0" parent="1">
          <mxGeometry x="470.0011764705883" y="230.00470588235294" as="geometry" />
        </mxCell>
        <mxCell id="4GwAoDzWt5xk7uMhApx6-28" value="" style="endArrow=diamondThin;endFill=0;endSize=24;html=1;rounded=0;entryX=0;entryY=0;entryDx=0;entryDy=0;" edge="1" parent="1" source="hWHZnMVluy6LuO4f5s4H-4" target="hWHZnMVluy6LuO4f5s4H-1">
          <mxGeometry width="160" relative="1" as="geometry">
            <mxPoint x="54" y="240" as="sourcePoint" />
            <mxPoint x="124" y="340" as="targetPoint" />
          </mxGeometry>
        </mxCell>
        <mxCell id="4GwAoDzWt5xk7uMhApx6-29" value="1" style="edgeLabel;html=1;align=center;verticalAlign=middle;resizable=0;points=[];" vertex="1" connectable="0" parent="4GwAoDzWt5xk7uMhApx6-28">
          <mxGeometry x="0.6867" y="3" relative="1" as="geometry">
            <mxPoint x="10" y="-8" as="offset" />
          </mxGeometry>
        </mxCell>
        <mxCell id="4GwAoDzWt5xk7uMhApx6-30" value="2" style="edgeLabel;html=1;align=center;verticalAlign=middle;resizable=0;points=[];" vertex="1" connectable="0" parent="4GwAoDzWt5xk7uMhApx6-28">
          <mxGeometry x="0.249" y="3" relative="1" as="geometry">
            <mxPoint x="-95" y="-84" as="offset" />
          </mxGeometry>
        </mxCell>
      </root>
    </mxGraphModel>
  </diagram>
</mxfile>
